<?xml version="1.0" standalone="no"?>
<!DOCTYPE svg PUBLIC "-//W3C//DTD SVG 20010904//EN"
 "http://www.w3.org/TR/2001/REC-SVG-20010904/DTD/svg10.dtd">
<svg version="1.0" xmlns="http://www.w3.org/2000/svg"
 width="943.000000pt" height="371.000000pt" viewBox="0 0 943.000000 371.000000"
 preserveAspectRatio="xMidYMid meet">
<metadata>
Created by potrace 1.15, written by Peter Selinger 2001-2017
</metadata>
<g transform="translate(0.000000,371.000000) scale(0.100000,-0.100000)"
fill="#000000" stroke="none">
<path d="M320 3405 l0 -65 -30 0 -30 0 0 -1585 0 -1585 1230 0 1230 0 0 1585
0 1585 -1105 0 c-1098 0 -1105 0 -1105 20 0 20 7 20 1135 20 l1135 0 0 -1540
0 -1540 40 0 40 0 0 1585 0 1585 -1270 0 -1270 0 0 -65z m2160 -1650 l0 -1365
-990 0 -990 0 0 1365 0 1365 990 0 990 0 0 -1365z"/>
<path d="M700 2635 l0 -185 790 0 790 0 0 185 0 185 -790 0 -790 0 0 -185z"/>
<path d="M3513 2380 c-89 -19 -168 -81 -199 -156 -18 -43 -18 -155 0 -197 30
-72 101 -113 297 -171 47 -14 94 -35 104 -46 27 -30 23 -76 -9 -108 -24 -25
-33 -27 -105 -27 -90 0 -121 15 -156 77 l-20 35 -87 -21 -87 -21 20 -45 c55
-123 202 -193 369 -175 126 14 218 70 264 163 57 112 9 260 -101 316 -27 13
-101 38 -166 56 -91 25 -122 38 -137 58 -23 28 -24 41 -9 75 15 32 49 47 107
47 58 0 111 -27 131 -67 l16 -30 77 26 c43 14 78 31 78 37 0 6 -15 34 -32 60
-61 92 -221 143 -355 114z"/>
<path d="M5510 2238 l0 -132 -27 26 c-60 57 -177 58 -250 2 -98 -75 -130 -326
-61 -485 59 -139 228 -170 322 -59 l26 32 0 -41 0 -41 85 0 85 0 0 415 0 415
-90 0 -90 0 0 -132z m-29 -204 c23 -24 24 -33 27 -166 4 -149 -4 -187 -42
-213 -52 -37 -116 -6 -136 66 -13 46 -13 190 1 244 23 91 97 125 150 69z"/>
<path d="M4160 2341 l-65 -6 -2 -35 c-2 -19 -6 -59 -9 -87 l-5 -53 -55 0 -54
0 0 -70 0 -70 50 0 50 0 0 -172 c0 -190 9 -238 49 -279 36 -35 119 -53 206
-44 l65 7 0 64 0 64 -54 0 c-85 0 -86 3 -86 196 l0 164 65 0 65 0 0 70 0 70
-65 0 -65 0 0 95 c0 70 -3 95 -12 93 -7 -1 -42 -4 -78 -7z"/>
<path d="M7300 2341 l-65 -6 -2 -35 c-2 -19 -6 -59 -9 -87 l-5 -53 -55 0 -54
0 0 -70 0 -70 50 0 50 0 0 -172 c0 -190 9 -238 49 -279 36 -35 119 -53 206
-44 l65 7 0 64 0 64 -54 0 c-85 0 -86 3 -86 196 l0 164 65 0 65 0 0 70 0 70
-65 0 -65 0 0 95 c0 70 -3 95 -12 93 -7 -1 -42 -4 -78 -7z"/>
<path d="M8430 2341 l-65 -6 -2 -35 c-2 -19 -6 -59 -9 -87 l-5 -53 -55 0 -54
0 0 -70 0 -70 50 0 50 0 0 -172 c0 -190 9 -238 49 -279 36 -35 119 -53 206
-44 l65 7 0 64 0 64 -54 0 c-85 0 -86 3 -86 196 l0 164 65 0 65 0 0 70 0 70
-65 0 -65 0 0 95 c0 70 -3 95 -12 93 -7 -1 -42 -4 -78 -7z"/>
<path d="M6018 2166 c-63 -17 -122 -59 -158 -114 -42 -63 -54 -113 -54 -212 0
-70 4 -95 25 -140 36 -77 71 -115 137 -147 48 -24 70 -28 137 -28 94 0 155 25
206 83 29 33 75 120 67 127 -1 1 -37 5 -79 7 l-76 5 -12 -33 c-24 -66 -96 -93
-160 -59 -34 17 -61 70 -61 119 l0 36 201 0 200 0 -6 48 c-25 189 -79 269
-208 307 -60 18 -96 18 -159 1z m150 -128 c23 -26 42 -69 42 -99 0 -18 -8 -19
-110 -19 -123 0 -123 0 -95 68 21 50 51 72 101 72 29 0 46 -6 62 -22z"/>
<path d="M6785 2165 c-37 -13 -74 -46 -102 -91 -10 -16 -12 -11 -12 34 l-1 52
-80 0 -80 0 0 -310 0 -310 85 0 85 0 1 178 c0 209 8 264 39 297 33 35 91 35
119 -1 20 -25 21 -39 21 -250 l0 -224 90 0 90 0 0 225 c0 293 -13 350 -89 390
-44 22 -121 27 -166 10z"/>
<path d="M7850 2174 c-58 -11 -123 -37 -151 -61 -28 -24 -69 -90 -69 -112 0
-10 30 -17 112 -24 44 -4 47 -3 59 25 16 40 46 58 97 58 58 0 92 -33 92 -89 0
-38 -2 -40 -32 -45 -18 -3 -67 -10 -108 -16 -147 -21 -224 -82 -237 -187 -7
-65 10 -114 52 -152 86 -75 223 -63 302 27 32 36 33 36 33 12 1 -67 5 -70 94
-70 l81 0 -3 237 c-2 131 -7 254 -13 275 -11 44 -64 93 -116 107 -45 13 -158
21 -193 15z m138 -397 c-5 -89 -46 -137 -115 -137 -69 0 -98 92 -47 144 27 26
98 54 143 55 23 1 23 -1 19 -62z"/>
<path d="M8878 2166 c-120 -32 -188 -136 -159 -244 24 -89 100 -132 258 -148
51 -5 73 -13 90 -30 30 -30 29 -39 -7 -76 -29 -29 -34 -30 -97 -26 -58 4 -69
8 -93 35 -15 17 -29 35 -31 40 -3 8 -134 -3 -147 -12 -11 -8 37 -91 69 -119
95 -81 301 -85 399 -8 95 75 107 228 25 301 -40 35 -80 47 -197 62 -89 11
-118 27 -118 65 0 37 40 57 105 52 55 -5 105 -35 105 -64 0 -9 13 -9 58 3 31
8 61 18 65 23 13 12 -17 62 -61 102 -60 54 -163 71 -264 44z"/>
<path d="M4490 1911 c0 -158 4 -260 11 -282 42 -124 206 -147 307 -43 l42 44
0 -45 0 -45 80 0 80 0 0 310 0 310 -90 0 -90 0 0 -221 0 -221 -29 -29 c-36
-36 -90 -40 -121 -9 -19 19 -20 33 -20 250 l0 230 -85 0 -85 0 0 -249z"/>
</g>
</svg>
